<?xml version="1.0" standalone="no"?>
<!DOCTYPE svg PUBLIC "-//W3C//DTD SVG 20010904//EN"
 "http://www.w3.org/TR/2001/REC-SVG-20010904/DTD/svg10.dtd">
<svg version="1.0" xmlns="http://www.w3.org/2000/svg"
 width="421.000000pt" height="421.000000pt" viewBox="0 0 421.000000 421.000000"
 preserveAspectRatio="xMidYMid meet">
<metadata>
Created by potrace 1.14, written by Peter Selinger 2001-2017
</metadata>
<g transform="translate(0.000000,421.000000) scale(0.100000,-0.100000)"
fill="#000000" stroke="none">
<path d="M1980 3648 c-19 -5 -54 -9 -78 -8 -60 1 -248 -46 -298 -75 -23 -14
-62 -40 -86 -58 -23 -18 -65 -41 -93 -51 -119 -44 -204 -125 -244 -231 -24
-65 -26 -120 -7 -194 13 -51 13 -55 -10 -89 -80 -117 -77 -412 6 -712 24 -88
30 -127 32 -242 l3 -138 37 0 37 0 -10 33 c-6 17 -12 43 -15 57 -3 14 -7 33
-10 43 -3 9 -1 17 5 17 6 0 13 -12 17 -27 9 -42 23 -68 45 -81 35 -22 175 -34
367 -30 196 3 193 3 255 51 25 20 47 115 47 202 l0 75 130 0 130 0 0 -70 c0
-104 17 -169 54 -206 50 -50 93 -57 336 -51 232 5 285 14 303 54 6 13 13 23
16 23 3 0 7 21 9 48 10 146 18 212 26 212 6 0 11 -13 12 -30 2 -19 -1 -28 -8
-24 -7 5 -8 2 -3 -7 11 -17 6 -93 -6 -97 -5 -2 -7 -8 -3 -13 8 -14 -17 -159
-27 -153 -5 3 -6 -2 -3 -10 8 -20 51 -21 70 -2 15 15 19 31 7 23 -5 -3 -5 61
-2 141 5 118 12 164 33 230 36 117 59 277 59 409 -1 134 -15 198 -55 253 -20
28 -31 58 -35 93 -3 32 -14 61 -26 75 -15 16 -21 38 -23 80 -4 84 -16 105
-107 194 -198 194 -399 270 -772 291 -44 3 -96 1 -115 -5z m-95 -663 c124 -12
189 -13 375 -4 361 18 447 6 540 -78 59 -53 104 -148 125 -268 9 -49 23 -128
32 -175 9 -47 18 -103 20 -124 l5 -39 -38 6 c-22 4 -57 10 -79 14 -67 13 -475
9 -522 -5 -29 -9 -53 -26 -74 -52 l-32 -40 -132 0 -133 0 -11 28 c-15 36 -37
49 -111 66 -87 20 -412 21 -505 1 -93 -20 -105 -19 -105 5 0 11 9 66 20 123
10 56 28 147 38 202 23 119 49 179 108 244 63 70 158 107 284 110 25 0 113 -6
195 -14z m-118 -671 c-3 -3 -12 -4 -19 -1 -8 3 -5 6 6 6 11 1 17 -2 13 -5z
m706 -1 c-7 -2 -19 -2 -25 0 -7 3 -2 5 12 5 14 0 19 -2 13 -5z m-676 -24 c43
-6 83 -15 89 -20 6 -5 13 -6 17 -3 13 13 38 -61 42 -124 3 -59 -1 -93 -20
-180 -6 -26 -60 -62 -93 -62 -13 0 -21 -3 -19 -7 5 -9 -395 1 -428 10 -11 3
-32 10 -46 15 -15 6 -29 9 -30 7 -2 -2 -4 6 -5 18 0 12 -4 63 -8 114 -10 113
5 197 37 215 12 7 40 15 62 19 65 11 318 10 402 -2z m1077 -9 c41 -22 56 -75
51 -187 -4 -104 -19 -168 -39 -176 -45 -18 -195 -29 -343 -26 -240 6 -257 18
-266 204 -6 116 4 152 50 171 20 9 56 18 82 21 25 3 48 8 51 10 3 3 91 3 195
1 140 -3 198 -8 219 -18z m-1624 -96 c0 -8 -6 -14 -12 -14 -9 0 -10 -3 -2 -8
14 -9 29 -152 16 -152 -14 0 -19 19 -18 72 1 25 -1 45 -4 43 -4 -2 -5 70 -1
83 3 9 21 -11 21 -24z"/>
<path d="M1555 2480 c-22 -3 -49 -11 -60 -17 -35 -19 -68 -61 -61 -78 5 -14 9
-14 43 2 54 24 135 27 258 9 114 -17 135 -13 135 25 0 25 -23 35 -110 48 -107
15 -159 18 -205 11z"/>
<path d="M2580 2483 c-69 -4 -193 -24 -212 -34 -10 -6 -18 -18 -18 -28 0 -37
21 -41 130 -25 121 18 209 15 263 -9 34 -16 38 -16 43 -2 7 18 -28 60 -66 80
-30 15 -80 21 -140 18z"/>
<path d="M1561 2263 c-75 -27 -150 -124 -139 -180 2 -12 13 3 31 39 35 71 72
103 143 124 61 17 114 13 179 -16 47 -20 74 -47 109 -110 32 -56 36 -24 5 35
-44 84 -116 125 -219 124 -36 0 -85 -8 -109 -16z"/>
<path d="M1613 2224 c-52 -26 -76 -74 -71 -140 4 -43 11 -61 31 -82 l26 -26
-4 26 -5 26 37 -19 c51 -26 73 -24 124 11 39 26 45 27 50 12 5 -14 7 -14 17 5
18 33 14 94 -8 131 -41 66 -126 91 -197 56z m41 -59 c9 -25 -5 -45 -30 -45
-14 0 -27 7 -30 15 -10 25 4 45 30 45 13 0 26 -7 30 -15z"/>
<path d="M1327 2033 c-4 -3 -7 -11 -7 -17 0 -6 5 -5 12 2 6 6 9 14 7 17 -3 3
-9 2 -12 -2z"/>
<path d="M2470 2271 c-58 -18 -120 -59 -121 -78 -1 -4 -10 -25 -20 -45 -10
-21 -19 -45 -19 -55 1 -10 9 -1 21 22 41 82 115 131 209 139 102 8 186 -40
228 -133 28 -60 40 -57 23 7 -13 46 -63 101 -117 127 -42 21 -161 30 -204 16z"/>
<path d="M2462 2220 c-88 -54 -96 -176 -16 -239 33 -26 53 -27 30 -2 -19 21
-9 35 14 20 34 -21 67 -11 143 43 14 11 19 10 26 0 7 -11 10 -10 15 3 12 33 6
100 -13 131 -37 61 -136 83 -199 44z m43 -70 c0 -18 -6 -26 -23 -28 -24 -4
-38 18 -28 44 3 9 15 14 28 12 17 -2 23 -10 23 -28z"/>
<path d="M3109 2093 c-34 -29 -69 -94 -68 -128 0 -11 6 -2 14 20 8 22 32 56
55 77 22 20 40 42 40 48 0 15 -5 13 -41 -17z"/>
<path d="M1070 2102 c0 -5 18 -23 39 -40 28 -22 44 -47 56 -82 22 -66 30 -59
10 8 -16 54 -67 122 -91 122 -8 0 -14 -4 -14 -8z"/>
<path d="M929 422 c-3 -34 3 -48 27 -69 l25 -23 550 0 c542 0 549 0 549 -20 0
-18 7 -20 71 -20 66 0 71 1 66 20 -5 20 0 20 501 20 480 0 508 1 532 18 14 11
27 29 28 42 l4 23 -35 -22 c-35 -21 -36 -21 -673 -20 -624 1 -1486 5 -1552 8
-23 1 -43 11 -63 30 -23 23 -29 26 -30 13z"/>
</g>
</svg>
